#!OML:ASF H:\MichaelJackson\Top Level 1\Subject 1\Session 1\male.ASF
:FULLY-SPECIFIED
:DEGREES
1389
root -5.60664 16.9576 20.4169 -168.793 -205.234 -180.357
lowerback 1.738 2.55381 -0.275717
upperback 2.11548 3.39352 2.04883
thorax 1.05509 1.68178 2.22415
lowerneck -5.99414 -6.85376 -0.537103
upperneck 7.80664 -9.28823 1.9043
head 3.722 -4.52238 0.240902
rclavicle -1.11319e-013 -2.94201e-014
rhumerus -41.5282 11.8258 -88.8556
rradius 79.2261
rwrist -8.01347
rhand -18.8704 -16.483
rfingers 7.12502
rthumb 7.43028 -46.3325
lclavicle -1.11319e-013 -2.94201e-014
lhumerus -75.861 -15.7357 104.11
lradius 93.6281
lwrist 35.7408
lhand -28.2791 22.7632
lfingers 7.12502
lthumb -1.65543 52.7365
rfemur -34.9487 -3.60788 21.2602
rtibia 46.7096
rfoot -13.4228 12.9107
rtoes 21.2243
lfemur -32.3775 2.97192 -21.4009
ltibia 58.3509
lfoot -15.7278 0.25252
ltoes 0.305235
1390
root -5.62153 16.9875 20.4415 -169.183 -205.386 -180.964
lowerback 1.9536 2.56599 0.128692
upperback 2.18861 3.41447 2.2936
thorax 1.01745 1.69639 2.24088
lowerneck -6.17901 -6.88966 -0.511363
upperneck 8.12536 -9.34037 1.83651
head 3.86611 -4.54392 0.197196
rclavicle -3.55825e-014 -3.26007e-014
rhumerus -41.3803 11.8274 -88.7904
rradius 78.0274
rwrist -7.59757
rhand -19.9258 -16.7771
rfingers 7.12502
rthumb 6.4115 -46.6601
lclavicle -3.55825e-014 -3.26007e-014
lhumerus -75.0546 -16.0195 104.029
lradius 95.1291
lwrist 36.1993
lhand -28.132 22.8037
lfingers 7.12502
lthumb -1.51342 52.7781
rfemur -33.9784 -3.84622 21.9596
rtibia 45.4044
rfoot -13.4249 13.2831
rtoes 21.9973
lfemur -34.1282 3.19975 -20.8135
ltibia 60.9365
lfoot -12.6717 -0.163603
ltoes 1.40686
1391
root -5.63568 17.0166 20.4681 -169.62 -205.646 -181.627
lowerback 2.17808 2.5482 0.626328
upperback 2.23493 3.39965 2.5241
thorax 0.95508 1.69463 2.19036
lowerneck -6.26529 -6.94795 -0.433148
upperneck 8.50481 -9.42529 1.73743
head 4.00886 -4.58113 0.134999
rclavicle 3.598e-014 -3.89618e-014
rhumerus -41.3197 11.7359 -88.8088
rradius 76.8377
rwrist -7.17967
rhand -20.303 -17.3164
rfingers 7.12502
rthumb 6.04726 -47.2101
lclavicle 3.598e-014 -3.89618e-014
lhumerus -74.2799 -16.3778 103.919
lradius 96.7094
lwrist 36.9352
lhand -27.4381 22.1075
lfingers 7.12502
lthumb -0.843192 52.0856
rfemur -32.9187 -4.14592 22.7304
rtibia 44.0417
rfoot -13.4515 13.5494
rtoes 22.9267
lfemur -35.9076 3.24428 -20.1318
ltibia 63.4265
lfoot -9.36678 -0.542885
ltoes 3.10611
1392
root -5.65233 17.0363 20.4928 -169.996 -206.067 -182.325
lowerback 2.31437 2.49884 1.11883
upperback 2.2608 3.34387 2.80381
thorax 0.919087 1.67207 2.19791
lowerneck -6.39425 -7.01536 -0.486492
upperneck 8.90855 -9.52238 1.76444
head 4.18521 -4.62174 0.132159
rclavicle 5.00937e-014 7.95139e-015
rhumerus -41.2817 11.6676 -88.7475
rradius 75.6915
rwrist -6.74403
rhand -21.0751 -17.8961
rfingers 7.12502
rthumb 5.30186 -47.8098
lclavicle 5.00937e-014 7.95139e-015
lhumerus -73.3696 -16.8412 103.908
lradius 98.3132
lwrist 37.8008
lhand -27.1491 22.1197
lfingers 7.12502
lthumb -0.564065 52.0987
rfemur -31.953 -4.53633 23.5543
rtibia 42.6579
rfoot -13.4857 13.7791
rtoes 23.9549
lfemur -37.8348 3.04206 -19.374
ltibia 65.7947
lfoot -5.83835 -0.905385
ltoes 6.62602
1393
root -5.66483 17.0569 20.5243 -170.427 -206.423 -182.944
lowerback 2.40779 2.48689 1.5877
upperback 2.32571 3.33668 3.01544
thorax 0.948316 1.67379 2.15169
lowerneck -6.48475 -7.10946 -0.504193
upperneck 9.36426 -9.66484 1.83774
head 4.37559 -4.6802 0.135903
rclavicle 4.75095e-014 -3.18055e-015
rhumerus -41.2591 11.5182 -88.7235
rradius 74.5408
rwrist -6.33487
rhand -21.8505 -18.4994
rfingers 7.12502
rthumb 4.55313 -48.4305
lclavicle 4.75095e-014 -3.18055e-015
lhumerus -72.3421 -17.5272 103.833
lradius 99.8366
lwrist 38.8047
lhand -25.9558 21.1692
lfingers 7.12502
lthumb 0.588468 51.1481
rfemur -30.8649 -4.82538 24.268
rtibia 41.2524
rfoot -13.5928 13.8992
rtoes 24.7152
lfemur -39.5198 2.82766 -18.7187
ltibia 67.9361
lfoot -2.58325 -1.06041
ltoes 14.2207
1394
root -5.68087 17.0732 20.553 -170.86 -206.751 -183.589
lowerback 2.55854 2.51269 2.02574
upperback 2.33444 3.38453 3.2321
thorax 0.884572 1.70267 2.12243
lowerneck -6.63675 -7.22986 -0.619776
upperneck 10.0042 -9.84005 1.9287
head 4.6555 -4.75302 0.152327
rclavicle -5.06901e-014 -1.03368e-014
rhumerus -41.3425 11.3095 -88.7138
rradius 73.4164
rwrist -5.91019
rhand -22.5075 -19.0978
rfingers 7.12502
rthumb 3.91874 -49.0415
lclavicle -5.06901e-014 -1.03368e-014
lhumerus -71.3959 -18.3367 103.857
lradius 101.471
lwrist 39.932
lhand -24.2619 20.3546
lfingers 7.12502
lthumb 2.22446 50.3227
rfemur -29.8626 -5.15315 25.0403
rtibia 39.9077
rfoot -13.5119 14.0862
rtoes 26.3904
lfemur -41.1693 2.62935 -18.0421
ltibia 69.888
lfoot -0.124051 -1.44731
ltoes 22.5413
1395
root -5.69631 17.0973 20.5847 -171.318 -207.123 -184.087
lowerback 2.73282 2.50846 2.34003
upperback 2.37538 3.39177 3.40332
thorax 0.837377 1.70989 2.11611
lowerneck -6.63832 -7.36645 -0.710148
upperneck 10.5147 -10.0468 2.10953
head 4.86541 -4.83847 0.201622
rclavicle -3.12092e-014 -2.38542e-014
rhumerus -41.4195 11.0518 -88.7242
rradius 72.2791
rwrist -5.41568
rhand -23.1147 -19.6459
rfingers 7.12502
rthumb 3.3323 -49.5996
lclavicle -3.12092e-014 -2.38542e-014
lhumerus -70.3124 -19.1109 103.754
lradius 102.92
lwrist 40.764
lhand -23.369 20.1685
lfingers 7.12502
lthumb 3.08679 50.1259
rfemur -28.805 -5.43839 25.6484
rtibia 38.6545
rfoot -13.449 14.1282
rtoes 27.4063
lfemur -42.5774 2.25273 -17.4584
ltibia 71.5541
lfoot 2.00051 -1.99699
ltoes 29.7022
1396
root -5.71075 17.1134 20.6162 -171.712 -207.566 -184.351
lowerback 2.9112 2.47359 2.43809
upperback 2.41608 3.35526 3.52661
thorax 0.778682 1.69268 2.18159
lowerneck -6.59815 -7.48307 -0.813321
upperneck 11.4608 -10.2445 2.36755
head 4.68586 -4.90606 0.238554
rclavicle -4.59193e-014 5.56597e-015
rhumerus -41.538 10.7675 -88.746
rradius 71.1323
rwrist -4.85224
rhand -23.7895 -20.2516
rfingers 7.12502
rthumb 2.68067 -50.2145
lclavicle -4.59193e-014 5.56597e-015
lhumerus -69.1318 -19.9586 103.657
lradius 104.366
lwrist 41.7925
lhand -21.9407 19.8018
lfingers 7.12502
lthumb 4.46606 49.7347
rfemur -27.8088 -5.79217 26.0322
rtibia 37.5836
rfoot -13.4282 14.041
rtoes 28.0835
lfemur -43.7392 1.63475 -17.0576
ltibia 72.8809
lfoot 2.92328 -2.79394
ltoes 32.52
1397
root -5.72538 17.1231 20.6461 -172.081 -207.701 -184.58
lowerback 3.0947 2.55052 2.49381
upperback 2.4654 3.4667 3.60525
thorax 0.723232 1.74899 2.22141
lowerneck -6.66323 -7.5964 -0.933178
upperneck 12.1852 -10.4334 2.59073
head 4.94202 -4.97334 0.291851
rclavicle -4.69132e-014 1.66979e-014
rhumerus -41.6114 10.4736 -88.7714
rradius 69.8292
rwrist -4.15461
rhand -24.229 -20.6284
rfingers 7.12502
rthumb 2.25624 -50.5962
lclavicle -4.69132e-014 1.66979e-014
lhumerus -67.8761 -20.8542 103.518
lradius 105.858
lwrist 42.9902
lhand -19.3772 20.1084
lfingers 7.12502
lthumb 6.94109 49.9746
rfemur -26.9675 -5.89828 26.3465
rtibia 36.6945
rfoot -13.1765 14.0198
rtoes 29.3558
lfemur -44.6901 1.15895 -16.6749
ltibia 73.8103
lfoot 2.89263 -3.52783
ltoes 31.7271
1398
root -5.73633 17.1246 20.6708 -172.39 -207.66 -184.803
lowerback 3.33925 2.63684 2.64837
upperback 2.4764 3.59699 3.59505
thorax 0.605626 1.81565 2.10951
lowerneck -6.77221 -7.66868 -1.06503
upperneck 12.9737 -10.5816 2.88976
head 5.23136 -5.01281 0.369086
rclavicle 2.82274e-014 -7.95139e-016
rhumerus -41.6547 10.2088 -88.9575
rradius 68.4858
rwrist -3.69071
rhand -24.9566 -20.9737
rfingers 7.12502
rthumb 1.55346 -50.9478
lclavicle 2.82274e-014 -7.95139e-016
lhumerus -66.4445 -21.6131 103.114
lradius 107.239
lwrist 44.2506
lhand -15.4909 19.7427
lfingers 7.12502
lthumb 10.6913 49.4507
rfemur -26.3174 -5.98604 26.6666
rtibia 36.0229
rfoot -13.0343 14.076
rtoes 30.156
lfemur -45.5707 0.704435 -16.2755
ltibia 74.3955
lfoot 2.01055 -4.42471
ltoes 29.416
